<?xml version="1.0" encoding="UTF-8" standalone="no"?>
<!-- Created with Inkscape (http://www.inkscape.org/) -->

<svg
   width="512"
   height="512"
   viewBox="0 0 512 512"
   version="1.1"
   id="svg1"
   xml:space="preserve"
   xmlns:xlink="http://www.w3.org/1999/xlink"
   xmlns="http://www.w3.org/2000/svg"
   xmlns:svg="http://www.w3.org/2000/svg"><defs
   id="defs1"><linearGradient
     id="linearGradient4"><stop
       style="stop-color:#7a5a12;stop-opacity:1;"
       offset="0.09193548"
       id="stop4" /><stop
       style="stop-color:#c9a24a;stop-opacity:1;"
       offset="0.21330643"
       id="stop91" /><stop
       style="stop-color:#efd27a;stop-opacity:1;"
       offset="0.42661288"
       id="stop63" /><stop
       style="stop-color:#8a6a1f;stop-opacity:1;"
       offset="0.6620968"
       id="stop5" /></linearGradient><linearGradient
     xlink:href="#linearGradient4"
     id="linearGradient5"
     x1="-70.690155"
     y1="23.338041"
     x2="117.97496"
     y2="23.338041"
     gradientUnits="userSpaceOnUse" /></defs><g
   id="layer1"><path
     style="fill:#ffd943;fill-opacity:0.13051471;stroke:url(#linearGradient5);stroke-width:5.66030384;stroke-dasharray:none;stroke-opacity:0.62683803;paint-order:stroke fill markers;stroke-linejoin:round"
     id="path3"
     d="M 57.890559,112.21863 -5.5581313,113.7614 -55.154322,74.159204 -67.691405,11.942342 -37.30314,-43.777222 21.791467,-66.927683 81.941392,-46.676684 115.00182,7.5001071 105.5034,70.252768 Z"
     transform="matrix(2.4913282,0,0,2.5358072,198.08492,196.46422)" /><path
     style="fill:#008080;stroke:#175011;stroke-width:0.786256;stroke-opacity:0.626838"
     d="m 149.14799,400.5306 c -6.30147,-2.44298 -10.49544,-6.40946 -13.53431,-12.80017 l -1.70403,-3.58356 V 261.17495 138.20306 l 2.00564,-4.06777 c 2.57662,-5.2258 5.95021,-8.57422 11.371,-11.28615 l 4.33511,-2.16879 h 103.52691 103.52691 l 4.26975,1.99362 c 7.24749,3.38396 12.50739,10.10834 13.49324,17.25007 l 0.41034,2.97261 h -6.0215 -6.02152 l -0.78044,-2.34679 c -1.1685,-3.51366 -2.42739,-5.10468 -5.10411,-6.45062 -2.36356,-1.18847 -4.66889,-1.21557 -103.41715,-1.21557 -83.86638,0 -101.35133,0.14481 -103.07249,0.85362 -2.6787,1.10315 -5.29824,4.19876 -6.13029,7.2444 -0.44608,1.63282 -0.60486,40.91733 -0.49289,121.94669 l 0.16517,119.53789 1.94995,2.40483 c 4.07229,5.02228 -5.95517,4.5931 107.33937,4.59418 108.37473,8.2e-4 103.5889,0.13744 106.50174,-3.03499 2.72201,-2.96457 2.88557,-4.76955 2.91479,-32.16592 l 0.0278,-26.12761 h 6.06704 6.06703 l -0.19392,28.63086 -0.19392,28.63087 -1.58734,3.09293 c -1.99241,3.88223 -7.10909,9.11526 -10.81787,11.06383 l -2.83315,1.48851 -105.08107,0.11265 c -79.47356,0.0852 -105.54525,-0.0672 -106.98586,-0.62581 z m 145.03289,-51.06812 c -2.35942,-2.32553 -2.36255,-3.65748 -0.034,-14.44761 1.00209,-4.64344 3.05643,-14.91979 4.56521,-22.8363 2.93383,-15.39368 2.37201,-13.88197 8.95425,-24.09373 1.22023,-1.89308 5.91057,-9.16822 10.42299,-16.16699 4.51241,-6.99877 8.48473,-13.1943 8.82738,-13.76785 0.91733,-1.53553 4.466,-7.13866 6.90298,-10.89934 8.62439,-13.30896 23.60508,-36.67942 24.16936,-37.70512 0.37872,-0.6884 1.80282,-2.94132 3.1647,-5.00649 1.36187,-2.06518 3.09726,-4.74052 3.8564,-5.94521 0.75915,-1.20468 2.57297,-3.95927 4.0307,-6.1213 1.45775,-2.16203 2.65043,-4.08896 2.65043,-4.28209 0,-0.30699 11.29367,-17.12975 17.05096,-25.3987 2.81341,-4.04074 6.58684,-7.08111 9.93531,-8.00516 4.4909,-1.23932 10.27951,-0.57572 14.98114,1.7174 4.82317,2.35242 12.5727,7.13817 16.37109,10.11002 5.50792,4.3094 8.03007,13.90412 5.12995,19.51518 -1.21812,2.35676 -5.85131,9.52157 -7.45337,11.52593 -0.48158,0.60252 -19.17831,28.3163 -64.44672,95.52804 -18.81127,27.92979 -22.83521,33.3495 -25.53716,34.39501 -0.34921,0.13512 -4.06357,2.46047 -8.25411,5.16744 -4.19054,2.70696 -8.61919,5.55614 -9.84143,6.33151 -1.22225,0.77536 -5.07944,3.22272 -8.57157,5.43859 -10.01183,6.35281 -10.82265,6.77606 -12.98113,6.77606 -1.40531,0 -2.61323,-0.56753 -3.89337,-1.82929 z m 20.58574,-21.62064 c 3.36261,-2.24716 6.3318,-4.09333 6.59821,-4.1026 0.26641,-0.01 1.45284,-0.80852 2.63652,-1.77614 l 2.15213,-1.75931 -5.00931,-3.40489 c -2.75514,-1.87268 -5.95258,-4.09401 -7.10544,-4.93629 -2.59656,-1.89707 -2.86477,-1.56136 -3.93256,4.92244 -0.43303,2.62938 -1.27882,7.10279 -1.87954,9.9409 -0.60071,2.8381 -0.95586,5.29459 -0.78922,5.45883 0.36179,0.3566 -0.21041,0.69567 7.32921,-4.34294 z m 24.42871,-20.82621 c 1.82302,-2.66752 3.79968,-5.55408 4.39257,-6.41456 3.77982,-5.48581 41.23865,-61.1894 41.75441,-62.09138 0.34921,-0.6107 4.22813,-6.39183 8.61982,-12.84693 15.00077,-22.04882 14.70247,-21.56428 13.79471,-22.40685 -0.45479,-0.42214 -4.11264,-2.96164 -8.12858,-5.64336 -4.01594,-2.68172 -8.5571,-5.81091 -10.09148,-6.95377 -1.53435,-1.14286 -2.97379,-2.07792 -3.19872,-2.07792 -0.47463,0 -2.18712,2.5829 -14.93711,22.5292 -5.17035,8.08861 -10.22022,15.87906 -11.22192,17.31212 -1.00171,1.43306 -1.82129,2.77361 -1.82129,2.97902 0,0.20541 -1.00001,1.77577 -2.22225,3.48969 -1.22224,1.71392 -2.22225,3.24707 -2.22225,3.407 0,0.15993 -1.92287,3.19018 -4.27302,6.73389 -2.35014,3.5437 -4.58736,7.00633 -4.9716,7.69473 -0.69739,1.24947 -8.73758,13.7977 -19.54794,30.5083 -1.16901,1.80702 -3.77807,5.89116 -5.79794,9.07586 l -3.67248,5.79037 1.80094,1.39627 c 0.99053,0.76795 2.67101,1.98124 3.73441,2.6962 1.06341,0.71497 3.74474,2.55005 5.95852,4.07796 7.19172,4.96364 8.03364,5.52153 8.38763,5.55813 0.19195,0.0197 1.84055,-2.14644 3.66357,-4.81397 z m 80.59842,-119.33988 c 4.82039,-7.16675 4.92992,-7.43019 4.00481,-9.63151 -1.18662,-2.82363 -16.08966,-11.99258 -19.49249,-11.99258 -2.22389,0 -4.62052,2.10179 -7.76237,6.80738 -1.85126,2.77266 -3.19007,5.32165 -2.97515,5.66441 0.21493,0.34276 3.1663,2.48892 6.55863,4.76924 3.39232,2.28032 8.16788,5.52449 10.61237,7.20926 2.44449,1.68476 4.58738,3.06772 4.76198,3.07324 0.1746,0.006 2.1061,-2.64922 4.29222,-5.89944 z M 166.81732,313.46482 c -2.41396,-1.04479 -3.38339,-2.64206 -3.38339,-5.5746 0,-3.04447 0.51636,-4.06751 2.58514,-5.12196 2.67172,-1.36175 71.51279,-1.36766 74.1836,-0.007 3.80517,1.93945 4.0665,7.3409 0.48279,9.97879 -1.75955,1.29519 -2.32303,1.31746 -36.82075,1.45547 -28.78655,0.11516 -35.39292,-0.0153 -37.04739,-0.73133 z m -0.51171,-62.65625 c -2.47996,-1.27455 -2.85035,-1.94117 -2.86196,-5.15088 -0.008,-2.02782 0.37312,-3.06548 1.54875,-4.22422 l 1.55847,-1.53609 h 58.47403 c 50.0781,0 58.73197,0.13146 60.27037,0.91557 2.06878,1.05445 2.58514,2.0775 2.58514,5.12196 0,2.96335 -0.86921,4.34115 -3.25601,5.16125 -1.41239,0.48529 -19.08052,0.69047 -59.22072,0.68778 -50.46935,-0.004 -57.43042,-0.1183 -59.09807,-0.97537 z M 166.1739,189.2023 c -1.87058,-0.74284 -2.73997,-2.52502 -2.73997,-5.61667 0,-1.97991 0.3879,-2.92859 1.68004,-4.10891 l 1.68005,-1.53465 h 81.40933 81.40933 l 1.61103,1.58789 c 0.88607,0.87333 1.79038,2.29223 2.00959,3.15308 0.53425,2.09804 -1.33047,5.84929 -3.26868,6.57561 -1.98369,0.74337 -161.91551,0.68834 -163.79072,-0.0564 z"
     id="path2" /></g></svg>
